<?xml version="1.0" standalone="no"?><!DOCTYPE svg PUBLIC "-//W3C//DTD SVG 1.1//EN" "http://www.w3.org/Graphics/SVG/1.1/DTD/svg11.dtd"><svg t="1602731611550" class="icon" viewBox="0 0 1024 1024" version="1.1" xmlns="http://www.w3.org/2000/svg" p-id="4810" width="16" height="16" xmlns:xlink="http://www.w3.org/1999/xlink"><defs><style type="text/css"></style></defs><path d="M768.56292452 252.35114801h-493.8723929v-109.74941544c0-50.42985684 41.02798682-91.45785893 91.45784389-91.45785888h310.95670497c50.42985684 0 91.45785893 41.02798682 91.45784404 91.45785888v109.74941544z m-438.99769273-54.87470023h384.1229921v-54.87471521c0-20.17560332-16.40754041-36.5831435-36.58314341-36.58314345h-310.95670497c-20.17560332 0-36.5831435 16.40754041-36.58314372 36.58314345v54.87471521z" fill="#d81e06" p-id="4811"></path><path d="M907.17645903 261.4969418h-771.09946207a27.43735011 27.43735011 0 1 1 0-54.8747155h771.09946207a27.43735011 27.43735011 0 1 1 0 54.8747155zM677.10508048 974.86819572h-310.95670497c-85.73258697 0-155.47835273-69.74576542-155.47835265-155.47835219v-475.58083628a27.43735011 27.43735011 0 1 1 54.87471523 0v475.58083628c0 55.46004655 45.12530401 100.60363718 100.60363742 100.60363698h310.95670497c55.46004655 0 100.60363718-45.14359084 100.60363721-100.60363698v-475.58083628a27.43735011 27.43735011 0 1 1 54.87471533 0v475.58083628c0 85.73258697-69.74576542 155.47835273-155.47835254 155.47835219z" fill="#d81e06" p-id="4812"></path><path d="M430.16886904 729.39531201a27.43735011 27.43735011 0 0 1-27.43735028-27.43735v-368.75806086a27.43735011 27.43735011 0 1 1 54.87471553 0v368.75806086a27.43735011 27.43735011 0 0 1-27.43736525 27.43735zM631.37615872 729.39531201a27.43735011 27.43735011 0 0 1-27.43736522-27.43735v-368.75806086a27.43735011 27.43735011 0 1 1 54.87471516 0v368.75806086a27.43735011 27.43735011 0 0 1-27.43734994 27.43735z" fill="#d81e06" p-id="4813"></path></svg>