<?xml version="1.0" standalone="no"?><!DOCTYPE svg PUBLIC "-//W3C//DTD SVG 1.1//EN" "http://www.w3.org/Graphics/SVG/1.1/DTD/svg11.dtd"><svg t="1602824697751" class="icon" viewBox="0 0 1024 1024" version="1.1" xmlns="http://www.w3.org/2000/svg" p-id="6444" width="16" height="16" xmlns:xlink="http://www.w3.org/1999/xlink"><defs><style type="text/css"></style></defs><path d="M735.19616 570.8288a156.48256 156.48256 0 1 0-156.48256 156.52864 156.50304 156.50304 0 0 0 156.48256-156.52864z" fill="#F4CA1C" p-id="6445"></path><path d="M515.47136 865.28c-336.06656 0-450.7392-275.62496-470.31808-330.88a73.15968 73.15968 0 0 1 0.47104-50.07872c19.968-53.08416 135.7056-318.464 454.85568-330.36288 320.5632-11.99104 453.50912 265.52832 476.89216 321.27488a73.10848 73.10848 0 0 1 2.10944 50.85696C961.06496 582.72768 852.14208 865.28 515.47136 865.28zM109.78304 511.40608c23.70048 66.8928 122.99776 285.14816 405.68832 285.14816 282.02496 0 376.5504-223.31392 398.80704-291.75296a4.15744 4.15744 0 0 0-0.13312-2.93888c-28.53376-68.03968-142.45888-289.24416-411.136-279.23456-268.86656 10.0352-368.95744 221.38368-393.216 285.92128a4.17792 4.17792 0 0 0 0 2.85184z m402.25792 178.62144A182.12352 182.12352 0 1 1 693.76 507.904a182.13376 182.13376 0 0 1-181.71904 182.12352z m0-295.52128a113.39776 113.39776 0 1 0 113.152 113.39776 113.408 113.408 0 0 0-113.152-113.39776z" fill="#595BB3" p-id="6446"></path></svg>