<?xml version="1.0" standalone="no"?><!DOCTYPE svg PUBLIC "-//W3C//DTD SVG 1.1//EN" "http://www.w3.org/Graphics/SVG/1.1/DTD/svg11.dtd"><svg t="1602731727702" class="icon" viewBox="0 0 1024 1024" version="1.1" xmlns="http://www.w3.org/2000/svg" p-id="7936" width="16" height="16" xmlns:xlink="http://www.w3.org/1999/xlink"><defs><style type="text/css"></style></defs><path d="M874.496 240.085333A96 96 0 0 1 938.666667 330.666667v426.666666A181.333333 181.333333 0 0 1 757.333333 938.666667h-426.666666a96 96 0 0 1-90.581334-64.170667l89.472 0.170667H757.333333a117.333333 117.333333 0 0 0 117.333334-117.333334v-426.666666l-0.170667-2.176V240.085333zM735.829333 85.333333a96 96 0 0 1 96 96v554.538667a96 96 0 0 1-96 96H181.333333A96 96 0 0 1 85.333333 735.872V181.333333A96 96 0 0 1 181.333333 85.333333h554.538667zM574.72 318.72L408.746667 484.608 366.933333 428.8a32 32 0 1 0-51.2 38.4l64 85.333333a32 32 0 0 0 48.213334 3.413334l192-192a32 32 0 0 0-45.226667-45.226667z" p-id="7937" fill="#1296db"></path></svg>