<?xml version="1.0" standalone="no"?><!DOCTYPE svg PUBLIC "-//W3C//DTD SVG 1.1//EN" "http://www.w3.org/Graphics/SVG/1.1/DTD/svg11.dtd"><svg t="1602731674106" class="icon" viewBox="0 0 1024 1024" version="1.1" xmlns="http://www.w3.org/2000/svg" p-id="6688" width="16" height="16" xmlns:xlink="http://www.w3.org/1999/xlink"><defs><style type="text/css"></style></defs><path d="M96 192h512A96 96 0 0 1 704 288v640A96 96 0 0 1 608 1024h-512A96 96 0 0 1 0 928v-640A96 96 0 0 1 96 192z m0 64a32 32 0 0 0-32 32v640a32 32 0 0 0 32 32h512a32 32 0 0 0 32-32v-640a32 32 0 0 0-32-32h-512z m298.688-183.872a32 32 0 0 1-42.752-47.616A95.744 95.744 0 0 1 416 0h512A96 96 0 0 1 1024 96v640a96 96 0 0 1-96 96h-69.952a32 32 0 1 1 0-64H928a32 32 0 0 0 32-32v-640a32 32 0 0 0-32-32h-512a31.744 31.744 0 0 0-21.312 8.128zM160 704a32 32 0 1 1 0-64h384a32 32 0 1 1 0 64h-384z m0 128a32 32 0 1 1 0-64h384a32 32 0 1 1 0 64h-384z m0-256a32 32 0 0 1 0-64h384a32 32 0 0 1 0 64h-384z" p-id="6689" fill="#1afa29"></path></svg>